<svg width="28" height="24" viewBox="0 0 28 24" fill="none" xmlns="http://www.w3.org/2000/svg">
<path d="M3.33366 2.66667V21.3333H24.667V5.33333H13.4483L10.7817 2.66667H3.33366ZM14.5523 2.66667H26.0003C26.3539 2.66667 26.6931 2.80714 26.9431 3.05719C27.1932 3.30724 27.3337 3.64638 27.3337 4V22.6667C27.3337 23.0203 27.1932 23.3594 26.9431 23.6095C26.6931 23.8595 26.3539 24 26.0003 24H2.00033C1.6467 24 1.30756 23.8595 1.05752 23.6095C0.807468 23.3594 0.666992 23.0203 0.666992 22.6667V1.33333C0.666992 0.979711 0.807468 0.640573 1.05752 0.390524C1.30756 0.140476 1.6467 0 2.00033 0H11.8857L14.5523 2.66667Z" fill="#219B53"/>
</svg>
