<svg width="228" height="40" viewBox="0 0 228 40" fill="none" xmlns="http://www.w3.org/2000/svg">
<g clip-path="url(#clip0_8_13970)">
<path d="M4.32661 13.0161L12.5121 35.4395C6.79032 32.6612 2.84274 26.7903 2.84274 19.9999C2.84047 17.5935 3.34611 15.2137 4.32661 13.0161ZM31.5806 19.133C31.5806 17.012 30.8185 15.5443 30.1653 14.4032C29.2984 12.9878 28.4839 11.7903 28.4839 10.379C28.4839 8.80236 29.6774 7.33462 31.3629 7.33462C31.4395 7.33462 31.5121 7.34268 31.5847 7.34671C28.4258 4.44378 24.2902 2.83588 20 2.84268C14.004 2.84268 8.73387 5.91929 5.66532 10.5766C6.06855 10.5886 6.44758 10.5967 6.77016 10.5967C8.56452 10.5967 11.3427 10.379 11.3427 10.379C12.2661 10.3225 12.375 11.6814 11.4516 11.7943C11.4516 11.7943 10.5202 11.9032 9.4879 11.9556L15.7339 30.5403L19.4879 19.2782L16.8185 11.9556C15.8911 11.8991 15.0161 11.7903 15.0161 11.7903C14.0927 11.7378 14.2016 10.3225 15.125 10.379C15.125 10.379 17.9597 10.5967 19.6452 10.5967C21.4395 10.5967 24.2177 10.379 24.2177 10.379C25.1452 10.3225 25.25 11.6814 24.3266 11.7903C24.3266 11.7903 23.3952 11.8991 22.3629 11.9556L28.5645 30.3991L30.2742 24.6814C31.0161 22.3064 31.5806 20.6007 31.5806 19.133ZM20.3024 21.4999L15.1532 36.4596C18.6099 37.4755 22.2984 37.3796 25.6976 36.1854C25.6485 36.1109 25.6079 36.0311 25.5766 35.9475L20.3024 21.4999ZM35.0524 11.7661C35.1323 12.3514 35.1714 12.9415 35.1694 13.5322C35.1694 15.2741 34.8427 17.2298 33.8629 19.6774L28.625 34.8306C33.7258 31.8548 37.1573 26.3306 37.1573 19.9999C37.1616 17.1217 36.4375 14.2891 35.0524 11.7661ZM40 19.9999C40 31.0282 31.0282 39.9999 20 39.9999C8.97177 39.9999 0 31.0282 0 19.9999C0 8.97171 8.97177 -6.10352e-05 20 -6.10352e-05C31.0282 -6.10352e-05 40 8.97171 40 19.9999ZM39.0806 19.9999C39.0806 9.47575 30.5202 0.915262 20 0.915262C9.47984 0.915262 0.915323 9.47575 0.915323 19.9999C0.915323 30.5241 9.47581 39.0846 20 39.0846C30.5242 39.0846 39.0806 30.5241 39.0806 19.9999Z" fill="#21759B"/>
</g>
<path d="M64.446 27L60.4119 12.4545H62.7202L65.554 23.7188H65.6889L68.6364 12.4545H70.9233L73.8707 23.7259H74.0057L76.8324 12.4545H79.1477L75.1065 27H72.8977L69.8366 16.1051H69.723L66.6619 27H64.446ZM84.4993 27.2202C83.4766 27.2202 82.584 26.9858 81.8217 26.517C81.0594 26.0483 80.4676 25.3925 80.0462 24.5497C79.6248 23.7069 79.4141 22.7221 79.4141 21.5952C79.4141 20.4635 79.6248 19.474 80.0462 18.6264C80.4676 17.7789 81.0594 17.1207 81.8217 16.652C82.584 16.1832 83.4766 15.9489 84.4993 15.9489C85.522 15.9489 86.4145 16.1832 87.1768 16.652C87.9392 17.1207 88.531 17.7789 88.9524 18.6264C89.3738 19.474 89.5845 20.4635 89.5845 21.5952C89.5845 22.7221 89.3738 23.7069 88.9524 24.5497C88.531 25.3925 87.9392 26.0483 87.1768 26.517C86.4145 26.9858 85.522 27.2202 84.4993 27.2202ZM84.5064 25.4375C85.1693 25.4375 85.7185 25.2623 86.1541 24.9119C86.5897 24.5616 86.9117 24.0952 87.12 23.5128C87.3331 22.9304 87.4396 22.2888 87.4396 21.5881C87.4396 20.892 87.3331 20.2528 87.12 19.6705C86.9117 19.0833 86.5897 18.6122 86.1541 18.2571C85.7185 17.902 85.1693 17.7244 84.5064 17.7244C83.8388 17.7244 83.2848 17.902 82.8445 18.2571C82.4089 18.6122 82.0845 19.0833 81.8714 19.6705C81.6631 20.2528 81.5589 20.892 81.5589 21.5881C81.5589 22.2888 81.6631 22.9304 81.8714 23.5128C82.0845 24.0952 82.4089 24.5616 82.8445 24.9119C83.2848 25.2623 83.8388 25.4375 84.5064 25.4375ZM91.9549 27V16.0909H94.0075V17.8239H94.1211C94.32 17.2367 94.6703 16.7751 95.1722 16.4389C95.6789 16.098 96.2518 15.9276 96.891 15.9276C97.0236 15.9276 97.1798 15.9323 97.3597 15.9418C97.5444 15.9512 97.6888 15.9631 97.793 15.9773V18.0085C97.7077 17.9848 97.5562 17.9588 97.3384 17.9304C97.1206 17.8973 96.9028 17.8807 96.685 17.8807C96.1831 17.8807 95.7357 17.9872 95.3427 18.2003C94.9544 18.4086 94.6467 18.6998 94.4194 19.0739C94.1921 19.4432 94.0785 19.8646 94.0785 20.3381V27H91.9549ZM103.324 27.2131C102.443 27.2131 101.657 26.9882 100.966 26.5384C100.279 26.0838 99.7396 25.4375 99.3466 24.5994C98.9583 23.7566 98.7642 22.7457 98.7642 21.5668C98.7642 20.3878 98.9607 19.3793 99.3537 18.5412C99.7514 17.7031 100.296 17.0616 100.987 16.6165C101.679 16.1714 102.462 15.9489 103.338 15.9489C104.015 15.9489 104.56 16.0625 104.972 16.2898C105.388 16.5123 105.71 16.7727 105.938 17.071C106.17 17.3693 106.349 17.6321 106.477 17.8594H106.605V12.4545H108.729V27H106.655V25.3026H106.477C106.349 25.5346 106.165 25.7997 105.923 26.098C105.687 26.3963 105.36 26.6567 104.943 26.8793C104.527 27.1018 103.987 27.2131 103.324 27.2131ZM103.793 25.402C104.403 25.402 104.92 25.241 105.341 24.919C105.767 24.5923 106.089 24.1402 106.307 23.5625C106.529 22.9848 106.641 22.3125 106.641 21.5455C106.641 20.7879 106.532 20.125 106.314 19.5568C106.096 18.9886 105.777 18.5459 105.355 18.2287C104.934 17.9115 104.413 17.7528 103.793 17.7528C103.153 17.7528 102.621 17.9186 102.195 18.25C101.768 18.5814 101.446 19.0336 101.229 19.6065C101.016 20.1795 100.909 20.8258 100.909 21.5455C100.909 22.2746 101.018 22.9304 101.236 23.5128C101.454 24.0952 101.776 24.5568 102.202 24.8977C102.633 25.2339 103.163 25.402 103.793 25.402ZM111.76 31.0909V16.0909H113.833V17.8594H114.011C114.134 17.6321 114.312 17.3693 114.544 17.071C114.776 16.7727 115.098 16.5123 115.51 16.2898C115.922 16.0625 116.466 15.9489 117.143 15.9489C118.024 15.9489 118.81 16.1714 119.501 16.6165C120.192 17.0616 120.734 17.7031 121.127 18.5412C121.525 19.3793 121.724 20.3878 121.724 21.5668C121.724 22.7457 121.528 23.7566 121.135 24.5994C120.742 25.4375 120.202 26.0838 119.515 26.5384C118.829 26.9882 118.045 27.2131 117.164 27.2131C116.502 27.2131 115.959 27.1018 115.538 26.8793C115.121 26.6567 114.795 26.3963 114.558 26.098C114.321 25.7997 114.139 25.5346 114.011 25.3026H113.883V31.0909H111.76ZM113.841 21.5455C113.841 22.3125 113.952 22.9848 114.174 23.5625C114.397 24.1402 114.719 24.5923 115.14 24.919C115.562 25.241 116.078 25.402 116.689 25.402C117.323 25.402 117.853 25.2339 118.279 24.8977C118.706 24.5568 119.028 24.0952 119.245 23.5128C119.468 22.9304 119.579 22.2746 119.579 21.5455C119.579 20.8258 119.47 20.1795 119.252 19.6065C119.039 19.0336 118.717 18.5814 118.287 18.25C117.86 17.9186 117.328 17.7528 116.689 17.7528C116.073 17.7528 115.552 17.9115 115.126 18.2287C114.705 18.5459 114.385 18.9886 114.167 19.5568C113.949 20.125 113.841 20.7879 113.841 21.5455ZM124.103 27V16.0909H126.156V17.8239H126.27C126.468 17.2367 126.819 16.7751 127.321 16.4389C127.827 16.098 128.4 15.9276 129.039 15.9276C129.172 15.9276 129.328 15.9323 129.508 15.9418C129.693 15.9512 129.837 15.9631 129.941 15.9773V18.0085C129.856 17.9848 129.705 17.9588 129.487 17.9304C129.269 17.8973 129.051 17.8807 128.833 17.8807C128.332 17.8807 127.884 17.9872 127.491 18.2003C127.103 18.4086 126.795 18.6998 126.568 19.0739C126.341 19.4432 126.227 19.8646 126.227 20.3381V27H124.103ZM136.09 27.2202C135.015 27.2202 134.09 26.9905 133.313 26.5312C132.541 26.0672 131.945 25.4162 131.523 24.5781C131.107 23.7353 130.898 22.7481 130.898 21.6165C130.898 20.4991 131.107 19.5142 131.523 18.6619C131.945 17.8097 132.532 17.1444 133.285 16.6662C134.042 16.188 134.928 15.9489 135.941 15.9489C136.557 15.9489 137.153 16.0507 137.731 16.2543C138.308 16.4579 138.827 16.7775 139.286 17.2131C139.746 17.6487 140.108 18.2145 140.373 18.9105C140.638 19.6018 140.771 20.4422 140.771 21.4318V22.1847H132.099V20.5938H138.69C138.69 20.035 138.576 19.5402 138.349 19.1094C138.121 18.6738 137.802 18.3305 137.39 18.0795C136.983 17.8286 136.504 17.7031 135.955 17.7031C135.359 17.7031 134.838 17.8499 134.393 18.1435C133.952 18.4323 133.612 18.8111 133.37 19.2798C133.133 19.7438 133.015 20.2481 133.015 20.7926V22.0355C133.015 22.7647 133.143 23.3849 133.398 23.8963C133.659 24.4077 134.021 24.7983 134.485 25.0682C134.949 25.3333 135.491 25.4659 136.112 25.4659C136.514 25.4659 136.881 25.4091 137.212 25.2955C137.544 25.1771 137.83 25.0019 138.072 24.7699C138.313 24.5379 138.498 24.2514 138.626 23.9105L140.636 24.2727C140.475 24.8646 140.186 25.383 139.769 25.8281C139.357 26.2685 138.839 26.6117 138.214 26.858C137.594 27.0994 136.886 27.2202 136.09 27.2202ZM151.301 18.7543L149.377 19.0952C149.296 18.849 149.168 18.6146 148.993 18.392C148.823 18.1695 148.591 17.9872 148.297 17.8452C148.004 17.7031 147.637 17.6321 147.196 17.6321C146.595 17.6321 146.093 17.767 145.691 18.0369C145.288 18.3021 145.087 18.6454 145.087 19.0668C145.087 19.4313 145.222 19.7249 145.492 19.9474C145.762 20.17 146.197 20.3523 146.799 20.4943L148.532 20.892C149.535 21.1241 150.283 21.4815 150.776 21.9645C151.268 22.4474 151.515 23.0748 151.515 23.8466C151.515 24.5 151.325 25.0824 150.946 25.5938C150.572 26.1004 150.049 26.4981 149.377 26.7869C148.709 27.0758 147.935 27.2202 147.054 27.2202C145.833 27.2202 144.836 26.9598 144.064 26.4389C143.292 25.9134 142.819 25.1676 142.644 24.2017L144.696 23.8892C144.824 24.4242 145.087 24.8291 145.485 25.1037C145.882 25.3736 146.401 25.5085 147.04 25.5085C147.736 25.5085 148.292 25.3641 148.709 25.0753C149.126 24.7817 149.334 24.4242 149.334 24.0028C149.334 23.6619 149.206 23.3755 148.951 23.1435C148.7 22.9115 148.314 22.7363 147.793 22.6179L145.946 22.2131C144.928 21.9811 144.176 21.6117 143.688 21.1051C143.205 20.5985 142.963 19.9569 142.963 19.1804C142.963 18.5365 143.143 17.973 143.503 17.4901C143.863 17.0071 144.36 16.6307 144.995 16.3608C145.629 16.0862 146.356 15.9489 147.175 15.9489C148.354 15.9489 149.282 16.2045 149.959 16.7159C150.636 17.2225 151.084 17.902 151.301 18.7543ZM162.024 18.7543L160.099 19.0952C160.019 18.849 159.891 18.6146 159.716 18.392C159.545 18.1695 159.313 17.9872 159.02 17.8452C158.726 17.7031 158.359 17.6321 157.919 17.6321C157.318 17.6321 156.816 17.767 156.413 18.0369C156.011 18.3021 155.81 18.6454 155.81 19.0668C155.81 19.4313 155.945 19.7249 156.214 19.9474C156.484 20.17 156.92 20.3523 157.521 20.4943L159.254 20.892C160.258 21.1241 161.006 21.4815 161.499 21.9645C161.991 22.4474 162.237 23.0748 162.237 23.8466C162.237 24.5 162.048 25.0824 161.669 25.5938C161.295 26.1004 160.772 26.4981 160.099 26.7869C159.432 27.0758 158.658 27.2202 157.777 27.2202C156.555 27.2202 155.559 26.9598 154.787 26.4389C154.015 25.9134 153.542 25.1676 153.366 24.2017L155.419 23.8892C155.547 24.4242 155.81 24.8291 156.207 25.1037C156.605 25.3736 157.124 25.5085 157.763 25.5085C158.459 25.5085 159.015 25.3641 159.432 25.0753C159.848 24.7817 160.057 24.4242 160.057 24.0028C160.057 23.6619 159.929 23.3755 159.673 23.1435C159.422 22.9115 159.036 22.7363 158.516 22.6179L156.669 22.2131C155.651 21.9811 154.898 21.6117 154.411 21.1051C153.928 20.5985 153.686 19.9569 153.686 19.1804C153.686 18.5365 153.866 17.973 154.226 17.4901C154.586 17.0071 155.083 16.6307 155.717 16.3608C156.352 16.0862 157.079 15.9489 157.898 15.9489C159.077 15.9489 160.005 16.2045 160.682 16.7159C161.359 17.2225 161.806 17.902 162.024 18.7543ZM170.036 27V12.4545H175.22C176.352 12.4545 177.289 12.6605 178.033 13.0724C178.776 13.4844 179.332 14.0478 179.702 14.7628C180.071 15.473 180.256 16.2732 180.256 17.1634C180.256 18.0582 180.069 18.8632 179.695 19.5781C179.325 20.2884 178.767 20.8518 178.018 21.2685C177.275 21.6804 176.34 21.8864 175.213 21.8864H171.648V20.0256H175.014C175.729 20.0256 176.309 19.9025 176.754 19.6562C177.199 19.4053 177.526 19.0644 177.734 18.6335C177.943 18.2027 178.047 17.7126 178.047 17.1634C178.047 16.6141 177.943 16.1264 177.734 15.7003C177.526 15.2741 177.197 14.9403 176.747 14.6989C176.302 14.4574 175.715 14.3366 174.986 14.3366H172.23V27H170.036ZM184.782 12.4545V27H182.658V12.4545H184.782ZM194.549 22.4759V16.0909H196.68V27H194.592V25.1108H194.478C194.227 25.6932 193.825 26.1785 193.271 26.5668C192.721 26.9503 192.037 27.142 191.218 27.142C190.517 27.142 189.897 26.9882 189.357 26.6804C188.822 26.3679 188.401 25.9062 188.093 25.2955C187.79 24.6847 187.638 23.9295 187.638 23.0298V16.0909H189.762V22.7741C189.762 23.5175 189.968 24.1094 190.38 24.5497C190.792 24.9901 191.327 25.2102 191.985 25.2102C192.383 25.2102 192.778 25.1108 193.171 24.9119C193.569 24.7131 193.898 24.4124 194.158 24.0099C194.424 23.6075 194.554 23.0961 194.549 22.4759ZM204.107 31.3182C203.24 31.3182 202.495 31.2045 201.87 30.9773C201.249 30.75 200.743 30.4493 200.35 30.0753C199.957 29.7012 199.663 29.2917 199.469 28.8466L201.294 28.0938C201.422 28.3021 201.593 28.5223 201.806 28.7543C202.024 28.991 202.317 29.1922 202.686 29.358C203.06 29.5237 203.541 29.6065 204.128 29.6065C204.933 29.6065 205.598 29.41 206.124 29.017C206.65 28.6288 206.912 28.0085 206.912 27.1562V25.0114H206.777C206.65 25.2434 206.465 25.5014 206.223 25.7855C205.987 26.0696 205.66 26.3158 205.243 26.5241C204.827 26.7325 204.284 26.8366 203.617 26.8366C202.755 26.8366 201.979 26.6354 201.287 26.233C200.601 25.8258 200.056 25.2268 199.654 24.4361C199.256 23.6406 199.057 22.6629 199.057 21.5028C199.057 20.3428 199.254 19.3485 199.647 18.5199C200.044 17.6913 200.589 17.0568 201.28 16.6165C201.971 16.1714 202.755 15.9489 203.631 15.9489C204.308 15.9489 204.855 16.0625 205.272 16.2898C205.688 16.5123 206.013 16.7727 206.245 17.071C206.481 17.3693 206.664 17.6321 206.792 17.8594H206.948V16.0909H209.029V27.2415C209.029 28.179 208.811 28.9484 208.375 29.5497C207.94 30.151 207.35 30.5961 206.607 30.8849C205.868 31.1738 205.035 31.3182 204.107 31.3182ZM204.086 25.0753C204.696 25.0753 205.212 24.9332 205.634 24.6491C206.06 24.3603 206.382 23.9484 206.6 23.4134C206.822 22.8736 206.934 22.2273 206.934 21.4744C206.934 20.7405 206.825 20.0942 206.607 19.5355C206.389 18.9768 206.069 18.5412 205.648 18.2287C205.227 17.9115 204.706 17.7528 204.086 17.7528C203.446 17.7528 202.914 17.9186 202.488 18.25C202.061 18.5767 201.739 19.0218 201.522 19.5852C201.309 20.1487 201.202 20.7784 201.202 21.4744C201.202 22.1894 201.311 22.8168 201.529 23.3565C201.747 23.8963 202.069 24.3177 202.495 24.6207C202.926 24.9238 203.456 25.0753 204.086 25.0753ZM211.877 27V16.0909H214V27H211.877ZM212.949 14.4077C212.58 14.4077 212.263 14.2846 211.998 14.0384C211.737 13.7874 211.607 13.4891 211.607 13.1435C211.607 12.7931 211.737 12.4948 211.998 12.2486C212.263 11.9976 212.58 11.8722 212.949 11.8722C213.319 11.8722 213.633 11.9976 213.894 12.2486C214.159 12.4948 214.292 12.7931 214.292 13.1435C214.292 13.4891 214.159 13.7874 213.894 14.0384C213.633 14.2846 213.319 14.4077 212.949 14.4077ZM218.981 20.5227V27H216.857V16.0909H218.896V17.8665H219.031C219.281 17.2888 219.674 16.8248 220.21 16.4744C220.749 16.1241 221.429 15.9489 222.248 15.9489C222.991 15.9489 223.642 16.1051 224.201 16.4176C224.76 16.7254 225.193 17.1847 225.501 17.7955C225.808 18.4062 225.962 19.1615 225.962 20.0611V27H223.839V20.3168C223.839 19.526 223.633 18.9081 223.221 18.4631C222.809 18.0133 222.243 17.7884 221.523 17.7884C221.031 17.7884 220.593 17.8949 220.21 18.108C219.831 18.321 219.53 18.6335 219.308 19.0455C219.09 19.4527 218.981 19.9451 218.981 20.5227Z" fill="#101828"/>
<defs>
<clipPath id="clip0_8_13970">
<rect width="40" height="40" fill="white"/>
</clipPath>
</defs>
</svg>
