<svg width="23" height="22" viewBox="0 0 23 22" fill="none" xmlns="http://www.w3.org/2000/svg">
<path d="M18.2279 17.732L19.9959 15.964L21.7629 17.732C22.1126 18.0816 22.3508 18.527 22.4473 19.012C22.5439 19.497 22.4944 19.9997 22.3052 20.4566C22.116 20.9134 21.7956 21.3039 21.3844 21.5786C20.9733 21.8534 20.4899 22 19.9954 22C19.5009 22 19.0176 21.8534 18.6064 21.5786C18.1953 21.3039 17.8749 20.9134 17.6857 20.4566C17.4965 19.9997 17.447 19.497 17.5435 19.012C17.6401 18.527 17.8782 18.0816 18.2279 17.732ZM7.87794 0.0799866L19.1919 11.393C19.2849 11.4859 19.3587 11.5961 19.409 11.7175C19.4593 11.8389 19.4852 11.9691 19.4852 12.1005C19.4852 12.2319 19.4593 12.362 19.409 12.4834C19.3587 12.6048 19.2849 12.7151 19.1919 12.808L10.7069 21.293C10.5194 21.4805 10.2651 21.5858 9.99994 21.5858C9.73477 21.5858 9.48046 21.4805 9.29294 21.293L0.807935 12.808C0.714959 12.7151 0.6412 12.6048 0.590875 12.4834C0.540551 12.362 0.514648 12.2319 0.514648 12.1005C0.514648 11.9691 0.540551 11.8389 0.590875 11.7175C0.6412 11.5961 0.714959 11.4859 0.807935 11.393L8.58594 3.61499L6.46394 1.49399L7.87994 0.0799866H7.87794ZM9.99994 5.02999L2.92894 12.1H17.0699L9.99994 5.02999Z" fill="#101828"/>
</svg>
