<svg width="26" height="27" viewBox="0 0 26 27" fill="none" xmlns="http://www.w3.org/2000/svg">
<path d="M1.45341 20.1667C0.889775 19.192 0.451634 18.1499 0.149414 17.0653C0.807157 16.7308 1.35954 16.2208 1.74545 15.5919C2.13137 14.9629 2.33577 14.2394 2.33604 13.5015C2.33632 12.7636 2.13246 12.0399 1.74702 11.4107C1.36157 10.7814 0.809574 10.271 0.152081 9.93601C0.754795 7.75666 1.90239 5.76661 3.48675 4.15334C4.10554 4.55564 4.82357 4.77889 5.56138 4.79838C6.2992 4.81787 7.02802 4.63285 7.66719 4.26378C8.30636 3.89472 8.83095 3.35601 9.18292 2.70726C9.53488 2.05852 9.70049 1.32504 9.66141 0.588008C11.8509 0.0221709 14.1484 0.0230887 16.3374 0.590675C16.2987 1.32769 16.4646 2.06106 16.8169 2.70962C17.1691 3.35818 17.6939 3.89664 18.3332 4.26542C18.9725 4.6342 19.7013 4.81892 20.4391 4.79914C21.1769 4.77936 21.8948 4.55585 22.5134 4.15334C23.2854 4.94001 23.9707 5.83468 24.5467 6.83334C25.1241 7.83201 25.5561 8.87334 25.8507 9.93468C25.193 10.2692 24.6406 10.7792 24.2547 11.4081C23.8688 12.0371 23.6644 12.7606 23.6641 13.4985C23.6638 14.2365 23.8677 14.9601 24.2531 15.5893C24.6386 16.2186 25.1906 16.729 25.8481 17.064C25.2454 19.2434 24.0978 21.2334 22.5134 22.8467C21.8946 22.4444 21.1766 22.2211 20.4388 22.2016C19.701 22.1821 18.9721 22.3672 18.333 22.7362C17.6938 23.1053 17.1692 23.644 16.8172 24.2928C16.4653 24.9415 16.2997 25.675 16.3387 26.412C14.1493 26.9778 11.8518 26.9769 9.66275 26.4093C9.70148 25.6723 9.53554 24.939 9.18331 24.2904C8.83107 23.6418 8.30627 23.1034 7.66698 22.7346C7.02768 22.3658 6.29882 22.1811 5.56105 22.2009C4.82328 22.2207 4.10536 22.4442 3.48675 22.8467C2.69873 22.0426 2.01554 21.1421 1.45341 20.1667ZM9.00008 20.428C10.4209 21.2475 11.4892 22.5627 12.0001 24.1213C12.6654 24.184 13.3334 24.1853 13.9987 24.1227C14.5099 22.5638 15.5787 21.2486 17.0001 20.4293C18.4204 19.6076 20.0941 19.3393 21.7001 19.676C22.0867 19.132 22.4201 18.552 22.6974 17.9453C21.6033 16.7233 20.9989 15.1403 21.0001 13.5C21.0001 11.82 21.6267 10.2507 22.6974 9.05468C22.4181 8.44821 22.0834 7.86885 21.6974 7.32401C20.0925 7.66042 18.4198 7.39264 17.0001 6.57201C15.5792 5.7525 14.511 4.43732 14.0001 2.87867C13.3347 2.81601 12.6667 2.81467 12.0014 2.87734C11.4902 4.4362 10.4214 5.75142 9.00008 6.57067C7.57979 7.39243 5.90605 7.6607 4.30008 7.32401C3.91417 7.86839 3.58026 8.44783 3.30275 9.05468C4.39684 10.2768 5.00126 11.8597 5.00008 13.5C5.00008 15.18 4.37341 16.7493 3.30275 17.9453C3.58204 18.5518 3.9168 19.1312 4.30275 19.676C5.9077 19.3396 7.58036 19.6074 9.00008 20.428ZM13.0001 17.5C11.9392 17.5 10.9218 17.0786 10.1717 16.3284C9.42151 15.5783 9.00008 14.5609 9.00008 13.5C9.00008 12.4391 9.42151 11.4217 10.1717 10.6716C10.9218 9.92144 11.9392 9.50001 13.0001 9.50001C14.0609 9.50001 15.0784 9.92144 15.8285 10.6716C16.5787 11.4217 17.0001 12.4391 17.0001 13.5C17.0001 14.5609 16.5787 15.5783 15.8285 16.3284C15.0784 17.0786 14.0609 17.5 13.0001 17.5ZM13.0001 14.8333C13.3537 14.8333 13.6928 14.6929 13.9429 14.4428C14.1929 14.1928 14.3334 13.8536 14.3334 13.5C14.3334 13.1464 14.1929 12.8072 13.9429 12.5572C13.6928 12.3072 13.3537 12.1667 13.0001 12.1667C12.6465 12.1667 12.3073 12.3072 12.0573 12.5572C11.8072 12.8072 11.6667 13.1464 11.6667 13.5C11.6667 13.8536 11.8072 14.1928 12.0573 14.4428C12.3073 14.6929 12.6465 14.8333 13.0001 14.8333Z" fill="#219A9B"/>
</svg>
