<svg width="30" height="30" viewBox="0 0 30 30" fill="none" xmlns="http://www.w3.org/2000/svg">
<path d="M23.6372 23.976L25.9946 21.6187L28.3506 23.976C28.8169 24.4421 29.1344 25.0361 29.2631 25.6827C29.3918 26.3293 29.3259 26.9996 29.0736 27.6088C28.8213 28.2179 28.3941 28.7386 27.8459 29.1049C27.2977 29.4712 26.6532 29.6667 25.9939 29.6667C25.3346 29.6667 24.6901 29.4712 24.1419 29.1049C23.5937 28.7386 23.1665 28.2179 22.9142 27.6088C22.662 26.9996 22.596 26.3293 22.7247 25.6827C22.8534 25.0361 23.171 24.4421 23.6372 23.976ZM9.83725 0.440002L24.9226 15.524C25.0465 15.6478 25.1449 15.7949 25.212 15.9567C25.2791 16.1186 25.3136 16.2921 25.3136 16.4673C25.3136 16.6426 25.2791 16.8161 25.212 16.9779C25.1449 17.1398 25.0465 17.2868 24.9226 17.4107L13.6092 28.724C13.3592 28.974 13.0201 29.1144 12.6666 29.1144C12.313 29.1144 11.974 28.974 11.7239 28.724L0.41058 17.4107C0.286612 17.2868 0.188266 17.1398 0.121167 16.9779C0.0540681 16.8161 0.0195312 16.6426 0.0195312 16.4673C0.0195312 16.2921 0.0540681 16.1186 0.121167 15.9567C0.188266 15.7949 0.286612 15.6478 0.41058 15.524L10.7812 5.15334L7.95191 2.32534L9.83991 0.440002H9.83725ZM12.6666 7.04L3.23858 16.4667H22.0932L12.6666 7.04Z" fill="#819B21"/>
</svg>
